<?xml version="1.0" encoding="UTF-8"?>
<svg id="Layer_2" data-name="Layer 2" xmlns="http://www.w3.org/2000/svg" viewBox="0 0 441 72">
  <g id="Layer_2-2" data-name="Layer 2">
    <g>
      <g>
        <g>
          <path d="M90.65,2.92C88.17,0,84.61,0,81.76,0h-6.57v22.1h6.4c3.16,0,5.9,0,8.1-1.83.86-.69,3.69-3.39,3.69-9.04,0-3.35-.94-6.23-2.72-8.31ZM89.39,11.35c0,2.95-.89,5.11-2.64,6.42-1.35,1.01-3.46,1.1-5.33,1.1h-2.47V3.27h3.12c2.41,0,4.05.28,5.35,1.72,1.77,1.95,1.96,5.09,1.96,6.35Z" fill="#fff"/>
          <path d="M112.22,0v13.47c0,1.54,0,5.63-5.34,5.63-2.05,0-3.57-.65-4.53-1.93-.42-.59-.86-1.49-.86-3.58V0h-3.77v13.38c0,3.4.68,4.67,1.31,5.6,2.25,3.22,6.24,3.57,7.85,3.57,1.76,0,5.04-.4,7.19-3.1,1.83-2.27,1.83-4.83,1.83-5.92V0h-3.69Z" fill="#fff"/>
          <path d="M138.6,21.55c-.81-2.28-1.01-4.06-1.29-6.51v-.09c-.26-2.19-.94-3.36-2.45-4.05.52-.24,1.05-.56,1.58-1.09,1.05-1.05,1.62-2.49,1.62-4.07,0-1.96-.93-3.67-2.55-4.69C133.85,0,131.52,0,130.4,0h-8.02v22.1h3.74v-9.61h3.3c3.38,0,3.92.73,4.25,3.61,0,0,.06.45.06.45.21,1.66.49,3.93.94,5.26l.09.28h4.04l-.19-.55ZM126.06,3.3h4.25c1.89,0,3.83.36,3.83,3.04,0,1.54-.86,2.2-1.23,2.41-.45.27-1.39.42-2.59.42h-4.25V3.3Z" fill="#fff"/>
          <path d="M158.08,0v9.14h-9.28V0h-3.77v22.1h3.77v-9.61h9.28v9.61h3.78V0h-3.78Z" fill="#fff"/>
          <path d="M179.24,0h-3.71l-9.31,22.1h3.93s2.11-5.08,2.3-5.54h9.32c.19.46,2.31,5.54,2.31,5.54h4.1L179.24,0ZM180.57,13.35h-6.84c.36-.91,2.9-7.34,3.51-8.87.58,1.54,3,7.97,3.33,8.87Z" fill="#fff"/>
          <path d="M210.22,0s-5.17,14.72-5.86,16.69C203.68,14.72,198.62,0,198.62,0h-5.93v22.1h3.69V5.07c1.25,3.53,6.01,17.04,6.01,17.04h3.39s5.02-13.78,6.27-17.22v17.22h3.72V0h-5.57Z" fill="#fff"/>
          <path d="M78.05,71.94c-2.44,0-2.9-1.44-2.79-3.07h1.97c0,.9.04,1.66,1.12,1.66.67,0,.99-.43.99-1.07,0-1.7-3.97-1.8-3.97-4.61,0-1.48.7-2.65,3.11-2.65,1.92,0,2.87.86,2.74,2.83h-1.92c0-.7-.12-1.42-.92-1.42-.64,0-1.02.36-1.02,1,0,1.8,3.97,1.64,3.97,4.6,0,2.44-1.79,2.73-3.29,2.73Z" fill="#fff"/>
          <path d="M91.68,62.34v6.69c0,1.41-.8,2.9-3.2,2.9-2.17,0-3.22-1.12-3.22-2.9v-6.69h1.97v6.56c0,1.17.49,1.62,1.21,1.62.86,0,1.25-.57,1.25-1.62v-6.56h1.97Z" fill="#fff"/>
          <path d="M95.75,67.06c0-2.5,0-4.87,3.26-4.87,2.01,0,2.82,1.11,2.74,3.13h-1.94c0-1.25-.23-1.72-.81-1.72-1.11,0-1.25,1.04-1.25,3.46s.14,3.46,1.25,3.46c.91,0,.87-1.17.9-1.92h1.95c0,2.52-1.01,3.33-2.85,3.33-3.26,0-3.26-2.41-3.26-4.88Z" fill="#fff"/>
          <path d="M105.56,67.06c0-2.5,0-4.87,3.25-4.87,2.01,0,2.83,1.11,2.75,3.13h-1.94c0-1.25-.22-1.72-.81-1.72-1.11,0-1.25,1.04-1.25,3.46s.15,3.46,1.25,3.46c.91,0,.88-1.17.9-1.92h1.95c0,2.52-1.01,3.33-2.85,3.33-3.25,0-3.25-2.41-3.25-4.88Z" fill="#fff"/>
          <path d="M115.46,71.78v-9.44h5.15v1.45h-3.18v2.32h2.93v1.45h-2.93v2.76h3.28v1.45h-5.25Z" fill="#fff"/>
          <path d="M127.11,71.94c-2.45,0-2.9-1.44-2.8-3.07h1.98c0,.9.04,1.66,1.12,1.66.66,0,.99-.43.99-1.07,0-1.7-3.97-1.8-3.97-4.61,0-1.48.71-2.65,3.11-2.65,1.92,0,2.87.86,2.74,2.83h-1.92c0-.7-.12-1.42-.91-1.42-.64,0-1.02.36-1.02,1,0,1.8,3.97,1.64,3.97,4.6,0,2.44-1.8,2.73-3.29,2.73Z" fill="#fff"/>
          <path d="M136.92,71.94c-2.45,0-2.9-1.44-2.8-3.07h1.98c0,.9.04,1.66,1.12,1.66.67,0,.99-.43.99-1.07,0-1.7-3.97-1.8-3.97-4.61,0-1.48.7-2.65,3.11-2.65,1.92,0,2.87.86,2.74,2.83h-1.92c0-.7-.12-1.42-.91-1.42-.64,0-1.02.36-1.02,1,0,1.8,3.98,1.64,3.98,4.6,0,2.44-1.79,2.73-3.29,2.73Z" fill="#fff"/>
          <path d="M149.58,71.78v-9.44h3.18l1.48,6.42h.02l1.56-6.42h3.07v9.44h-1.92v-7.28h-.02l-1.82,7.28h-1.88l-1.72-7.28h-.02v7.28h-1.93Z" fill="#fff"/>
          <path d="M162.34,71.78l2.61-9.44h2.6l2.56,9.44h-2.08l-.52-2.09h-2.69l-.53,2.09h-1.95ZM166.14,64.16h-.02l-.91,4.08h1.88l-.95-4.08Z" fill="#fff"/>
          <path d="M178.42,62.34v1.57h-2.2v7.87h-1.98v-7.87h-2.19v-1.57h6.36Z" fill="#fff"/>
          <path d="M187.5,62.34v1.57h-2.19v7.87h-1.98v-7.87h-2.19v-1.57h6.36Z" fill="#fff"/>
          <path d="M190.96,71.78v-9.44h5.15v1.45h-3.18v2.32h2.93v1.45h-2.93v2.76h3.28v1.45h-5.26Z" fill="#fff"/>
          <path d="M201.98,71.78h-1.97v-9.44h3.65c1.35,0,2.2.86,2.2,2.47,0,1.2-.47,2.11-1.75,2.31v.02c.43.06,1.71.16,1.71,1.86,0,.6.04,2.38.22,2.77h-1.93c-.26-.58-.21-1.22-.21-1.83,0-1.12.11-2.08-1.41-2.08h-.51v3.91ZM201.98,66.42h.88c.78,0,1-.78,1-1.38,0-.9-.38-1.24-1-1.24h-.88v2.62Z" fill="#fff"/>
          <path d="M212.42,71.94c-2.44,0-2.9-1.44-2.79-3.07h1.97c0,.9.04,1.66,1.13,1.66.67,0,.99-.43.99-1.07,0-1.7-3.98-1.8-3.98-4.61,0-1.48.71-2.65,3.12-2.65,1.92,0,2.88.86,2.74,2.83h-1.92c0-.7-.11-1.42-.92-1.42-.63,0-1.01.36-1.01,1,0,1.8,3.97,1.64,3.97,4.6,0,2.44-1.79,2.73-3.3,2.73Z" fill="#fff"/>
          <rect x="75.1" y="55.34" width="140.64" height=".98" fill="#fff"/>
          <path d="M88.84,42.51c-.07.41-.23,1.27-.93,2.03-.74.76-1.77,1.14-3.15,1.14-3.71,0-5.6-2.67-5.6-7.92,0-3.13.73-8.37,5.63-8.37,3.66,0,4.05,2.47,4.18,3.29l.06.4h.35s3.6,0,3.6,0l-.04-.45c-.38-4.73-4.4-6.42-8.05-6.42-7.17,0-9.73,5.98-9.73,11.58,0,2.61.67,11.14,9.34,11.14,3.55,0,7.88-1.65,8.37-6.29l.05-.46h-4.05l-.06.34Z" fill="#fff"/>
          <path d="M106.22,25.93c-2.12,0-5.12.52-7.4,2.99-1.89,2.04-2.85,4.99-2.85,8.77,0,7.35,3.56,11.4,10.02,11.4s10.26-4.29,10.26-11.76-3.65-11.41-10.02-11.41ZM110.46,43.97c-1,1.19-2.48,1.79-4.39,1.79s-3.44-.6-4.39-1.79c-1.19-1.48-1.79-3.65-1.79-6.46,0-5.5,2.14-8.28,6.36-8.28s6.04,2.64,6.04,8.07c0,1.66-.24,4.73-1.82,6.67Z" fill="#fff"/>
          <path d="M123.85,45.15v-18.66h-3.74v22.11h13.65v-3.45h-9.9Z" fill="#fff"/>
          <path d="M142.08,45.15v-18.66h-3.74v22.11h13.65v-3.45h-9.91Z" fill="#fff"/>
          <path d="M161.02,45.17v-6.25h9.9v-3.3h-9.9v-5.81h10.4v-3.33h-14.18v22.11h14.42v-3.42h-10.64Z" fill="#fff"/>
          <path d="M186.29,36.45v3.27h4.86v5.59c-.75.22-2.14.57-4.21.57-2.43,0-4.22-.66-5.34-1.95-1.36-1.61-1.85-4.37-1.85-6.42,0-1.9.38-4.58,2.17-6.56.97-1.1,2.48-1.66,4.49-1.66,2.52,0,4.08,1.06,4.4,2.98l.06.35h4l-.03-.44c-.06-.82-.15-2.21-1.52-3.65-2.12-2.15-4.77-2.4-6.58-2.4-2.5,0-4.63.54-6.16,1.57-4.4,2.96-4.75,8.55-4.75,10.19,0,3.39,1.1,6.37,3.1,8.4,1.82,1.87,4.44,2.77,8.01,2.77,3.78,0,6.63-.96,7.7-1.32l.28-.1v-11.2h-8.64Z" fill="#fff"/>
          <path d="M205.36,45.17v-6.25h9.9v-3.3h-9.9v-5.81h10.4v-3.33h-14.18v22.11h14.42v-3.42h-10.64Z" fill="#fff"/>
        </g>
        <g>
          <path d="M.17,0v28.28h26.86V0H.17ZM21.68,22.57H5.53V5.71h16.15v16.86Z" fill="#fff"/>
          <path d="M34.2,0v28.28h26.86V0h-26.86ZM55.71,22.57h-16.15V5.71h16.15v16.86Z" fill="#fff"/>
          <path d="M26.81,72v-35.88H.13c-.09,1.01-.13,2.01-.13,2.97,0,16.48,11.5,30.55,26.81,32.9ZM5.85,41.98h0l.06-.77h16.07v23.62l-1.2-.58c-10.68-5.16-15.33-17.05-14.93-22.27Z" fill="#fff"/>
          <path d="M34.38,72c15.31-2.35,26.81-16.43,26.81-32.9,0-.97-.04-1.97-.13-2.97h-26.68v35.88ZM39.22,64.56v-23.35h16.07l.06.77c.4,5.21-4.25,17.11-14.93,22.27l-1.2.58h0s-.51.25-.51.25l.51-.51Z" fill="#fff"/>
        </g>
      </g>
      <line x1="242.86" y1="1.13" x2="242.86" y2="71.12" fill="none" stroke="#000" stroke-miterlimit="10" stroke-width="3"/>
      <g>
        <path d="M269.33,48.09v-21.87h3.05v10.31l5.02-10.31h2.83l-4.32,9.64,5.02,12.23h-2.97l-4.18-10.26-1.4,2.54v7.72h-3.05Z" fill="#3e2b2f"/>
        <path d="M282.7,48.09v-21.87h2.08l6.21,14.53v-14.53h2.54v21.87h-1.94l-6.29-14.93v14.93h-2.59Z" fill="#3e2b2f"/>
        <path d="M302.54,48.34c-1.48,0-2.66-.29-3.54-.86s-1.51-1.4-1.89-2.47c-.38-1.07-.57-2.33-.57-3.77v-8.29c0-1.44.19-2.68.58-3.71.39-1.04,1.02-1.83,1.89-2.38.87-.55,2.05-.82,3.52-.82s2.65.28,3.51.84c.86.56,1.49,1.35,1.88,2.38.39,1.03.58,2.26.58,3.7v8.32c0,1.42-.19,2.66-.58,3.73-.39,1.06-1.01,1.89-1.88,2.47s-2.03.88-3.51.88ZM302.54,45.93c.81,0,1.42-.17,1.84-.5.41-.33.69-.8.84-1.4.14-.6.22-1.31.22-2.12v-9.58c0-.81-.07-1.51-.22-2.09-.14-.58-.42-1.04-.84-1.35s-1.03-.47-1.84-.47-1.43.16-1.85.47-.71.77-.85,1.35c-.14.58-.22,1.28-.22,2.09v9.58c0,.81.07,1.52.22,2.12.14.6.43,1.07.85,1.4.42.33,1.04.5,1.85.5Z" fill="#3e2b2f"/>
        <path d="M314.34,48.09l-3.56-21.87h2.54l2.35,15.71,2.94-15.63h2.16l2.97,15.71,2.29-15.8h2.48l-3.51,21.87h-2.21l-3.05-16.2-3.08,16.2h-2.32Z" fill="#3e2b2f"/>
        <path d="M331.19,48.09v-21.87h3.05v19.68h5.59v2.19h-8.64Z" fill="#3e2b2f"/>
        <path d="M341.91,48.09v-21.87h8.48v2.27h-5.43v7.24h4.4v2.16h-4.4v8.02h5.48v2.19h-8.53Z" fill="#3e2b2f"/>
        <path d="M352.9,48.09v-21.87h4.75c1.62,0,2.9.25,3.85.74.94.5,1.62,1.24,2.02,2.23.41.99.61,2.22.61,3.7v8.05c0,1.55-.2,2.85-.61,3.92-.4,1.06-1.06,1.87-1.97,2.42-.91.55-2.13.82-3.66.82h-5ZM355.95,45.91h1.73c1.12,0,1.91-.22,2.38-.65.47-.43.75-1.06.85-1.89.1-.83.15-1.83.15-3v-7.1c0-1.13-.07-2.05-.22-2.75-.14-.7-.46-1.21-.94-1.54-.49-.32-1.25-.49-2.29-.49h-1.65v17.42Z" fill="#3e2b2f"/>
        <path d="M372.34,48.36c-1.37,0-2.46-.29-3.28-.88-.82-.58-1.41-1.44-1.78-2.55-.37-1.12-.55-2.46-.55-4.02v-7.32c0-1.6.17-2.97.5-4.09.33-1.12.93-1.98,1.78-2.58.86-.59,2.05-.89,3.58-.89,1.37,0,2.47.23,3.31.69s1.44,1.16,1.82,2.11c.38.95.57,2.14.57,3.58v.81h-2.86v-.67c0-.95-.06-1.73-.19-2.34-.13-.6-.38-1.05-.77-1.35-.39-.3-.99-.45-1.82-.45-.9,0-1.55.21-1.96.62-.41.41-.66.98-.76,1.69-.1.71-.15,1.52-.15,2.42v8.1c0,1.04.08,1.92.23,2.62.15.7.45,1.22.88,1.57s1.04.51,1.84.51,1.4-.19,1.84-.57.73-.94.89-1.67c.16-.74.24-1.66.24-2.75v-1.51h-2.78v-2.16h5.54v10.83h-1.92l-.3-2.51c-.29.81-.74,1.48-1.35,2-.61.52-1.46.78-2.54.78Z" fill="#3e2b2f"/>
        <path d="M381.57,48.09v-21.87h8.48v2.27h-5.43v7.24h4.4v2.16h-4.4v8.02h5.48v2.19h-8.53Z" fill="#3e2b2f"/>
        <path d="M398.74,48.09v-21.87h3.05v9.45h5.62v-9.45h3.05v21.87h-3.05v-10.23h-5.62v10.23h-3.05Z" fill="#3e2b2f"/>
        <path d="M419.53,48.34c-1.58,0-2.8-.32-3.64-.95-.85-.63-1.42-1.52-1.73-2.66-.31-1.14-.46-2.48-.46-4.01v-14.5h2.92v14.63c0,.94.06,1.79.19,2.57.13.77.4,1.39.82,1.84s1.06.67,1.9.67,1.5-.22,1.92-.67.68-1.06.81-1.84c.12-.77.19-1.63.19-2.57v-14.63h2.89v14.5c0,1.53-.15,2.87-.46,4.01-.31,1.14-.88,2.03-1.71,2.66s-2.05.95-3.63.95Z" fill="#3e2b2f"/>
        <path d="M428.55,48.09v-21.87h5.02c.99,0,1.85.11,2.58.32.73.22,1.34.55,1.82,1,.49.45.85,1.02,1.08,1.71.23.69.35,1.51.35,2.44s-.11,1.68-.34,2.34c-.23.66-.57,1.17-1.03,1.55s-1.05.62-1.77.73c.88.2,1.59.54,2.13,1.01.54.48.94,1.09,1.2,1.84.26.75.39,1.64.39,2.69,0,.94-.11,1.79-.32,2.57-.22.77-.55,1.43-1.01,1.97s-1.04.96-1.75,1.26c-.71.3-1.55.45-2.52.45h-5.83ZM431.6,35.35h1.81c.86,0,1.54-.12,2.03-.36.49-.24.83-.63,1.03-1.17.2-.54.3-1.24.3-2.11,0-1.01-.15-1.74-.46-2.19-.31-.45-.78-.73-1.43-.85-.65-.12-1.49-.18-2.54-.18h-.73v6.86ZM431.6,45.91h2.05c1.37,0,2.28-.32,2.74-.96s.69-1.67.69-3.09c0-.92-.12-1.69-.37-2.31-.24-.62-.63-1.09-1.16-1.4-.53-.31-1.25-.47-2.15-.47h-1.81v8.23Z" fill="#3e2b2f"/>
      </g>
    </g>
  </g>
</svg>